<?xml version="1.0" encoding="UTF-8"?>
<svg id="Camada_1" data-name="Camada 1" xmlns="http://www.w3.org/2000/svg" viewBox="0 0 488.48 522.25">
  <defs>
    <style>
      .cls-1 {
        fill: #211915;
      }
    </style>
  </defs>
  <path class="cls-1" d="M323.58,294.27l.13,1.16,.71-.44-.84-.72Z"/>
  <path class="cls-1" d="M323.58,294.27l.13,1.16,.71-.44-.84-.72Z"/>
  <polygon class="cls-1" points="429.01 483.67 435.43 495.11 403.42 513.1 396.99 501.67 406.51 496.32 391.12 468.93 404.09 461.64 419.49 489.02 429.01 483.67"/>
  <path class="cls-1" d="M460.42,470.93c-7.6,9.62-15.5,12.64-27.9,2.85l9.07-11.49c5.41,3.88,7.18,3.02,8.91,.81,1.82-2.29,2.18-4.73-5.48-10.77-7.66-6.05-9.94-5.13-11.75-2.83-1.78,2.25-2.16,4.2,3.3,8.9l-9.07,11.49c-12.78-10.09-11.85-18.45-4.15-28.22,7.94-10.05,16.57-12.8,31.12-1.31,14.56,11.49,13.88,20.51,5.95,30.57Z"/>
  <polygon class="cls-1" points="445.23 395.27 488.09 407.39 479.24 438.67 467.79 435.44 472.59 418.47 467.89 417.14 463.92 431.17 453.53 428.23 457.5 414.21 452.63 412.83 447.7 430.26 436.25 427.02 445.23 395.27"/>
  <rect class="cls-1" x="433.37" y="328.81" width="44.53" height="14.89" transform="translate(-100.4 229.03) rotate(-25.51)"/>
  <polygon class="cls-1" points="395.45 269.55 386.38 299.62 372.13 295.32 381.21 265.25 370.75 262.09 374.54 249.54 409.7 260.15 405.91 272.7 395.45 269.55"/>
  <path class="cls-1" d="M385.92,496.23c2.1,18.42-4.79,24.3-17.52,25.75-12.72,1.45-20.75-2.73-22.85-21.16-2.09-18.42,4.79-24.3,17.52-25.75,12.72-1.45,20.75,2.73,22.85,21.16Z"/>
  <polygon class="cls-1" points="323.58 294.27 323.71 295.43 310.66 303.47 306.91 299.83 296.83 306.04 298.4 311.02 284.95 319.31 273.69 273.94 288.96 264.53 323.58 294.27"/>
  <path class="cls-1" d="M405.64,307.97l32.14-30.82,10.51,10.96c14.52,15.14,12.39,22.17,.9,33.19-11.57,11.1-18.51,12.77-33.08-2.42l-10.47-10.91Z"/>
  <path class="cls-1" d="M328.17,473.78l14.14,4.66-13.93,42.29-18.77-6.18c-14.14-4.65-18.05-9.73-13.89-22.36,2.29-6.95,5.11-10.45,9.62-11.47l-.81-14.72,15.07,4.96-.17,11.63,5.27,1.74,3.47-10.55Z"/>
  <path class="cls-1" d="M441.37,354.79l44.19-5.48,2.43,19.62c1.83,14.77-1.09,20.48-14.28,22.11-7.27,.9-11.64-.15-14.49-3.79l-12.96,7.01-1.95-15.74,10.59-4.81-.68-5.51-11.02,1.36-1.83-14.77Z"/>
  <path class="cls-1" d="M347.55,293.6l-4.63-10.67-5.52,.58,1.18,11.04-14.8,1.58-.07-.7,.71-.44-.84-.72-4.52-42.42,19.66-2.09c14.8-1.57,20.45,1.44,21.86,14.66,.77,7.28-.36,11.64-4.05,14.42l6.79,13.08-15.77,1.68Z"/>
</svg>