<?xml version="1.0" encoding="UTF-8"?>
<svg id="Camada_1" data-name="Camada 1" xmlns="http://www.w3.org/2000/svg" viewBox="0 0 488.48 543.4">
  <defs>
    <style>
      .cls-1 {
        fill: #211915;
      }
    </style>
  </defs>
  <polygon class="cls-1" points="257.05 437.1 265.33 540.72 225.98 444.5 193.98 543.4 194.45 439.46 127.03 518.58 167.24 422.72 74.68 470.03 148.51 396.86 44.9 405.14 141.11 365.79 42.21 333.79 146.16 334.25 67.03 266.84 162.89 307.05 115.59 214.49 188.76 288.32 180.48 184.7 219.83 280.91 251.83 182.02 251.36 285.96 318.77 206.84 278.56 302.69 371.13 255.39 297.29 328.56 400.91 320.28 304.7 359.63 403.6 391.63 299.65 391.17 378.77 458.58 282.92 418.37 330.22 510.93 257.05 437.1"/>
</svg>