<?xml version="1.0" encoding="UTF-8"?>
<svg id="Camada_1" data-name="Camada 1" xmlns="http://www.w3.org/2000/svg" viewBox="0 0 2478.83 793.64">
  <defs>
    <style>
      .cls-1 {
        fill: #1d1d1b;
      }

      .cls-2 {
        fill: #a4539b;
      }
    </style>
  </defs>
  <polygon class="cls-2" points="0 0 0 350.58 9.52 345.72 0 368.41 0 536.75 110.07 407.56 108.34 791.76 226.63 426.22 372.06 781.83 341.45 398.85 611.9 671.74 437.07 329.62 791.36 478.24 498.91 229.08 883.11 230.8 517.57 112.52 792.69 0 0 0"/>
  <g>
    <path class="cls-1" d="M2041.33,188.81l.34,3.08,1.88-1.17-2.23-1.91Z"/>
    <path class="cls-1" d="M2041.33,188.81l.34,3.08,1.88-1.17-2.23-1.91Z"/>
    <polygon class="cls-1" points="2321.04 691.3 2338.08 721.65 2253.15 769.38 2236.09 739.05 2261.35 724.86 2220.52 652.19 2254.93 632.85 2295.79 705.49 2321.04 691.3"/>
    <path class="cls-1" d="M2404.38,657.5c-20.16,25.52-41.12,33.53-74.02,7.56l24.06-30.48c14.35,10.29,19.05,8.01,23.64,2.15,4.83-6.08,5.78-12.55-14.54-28.57-20.32-16.05-26.37-13.61-31.17-7.51-4.72,5.97-5.73,11.14,8.75,23.61l-24.06,30.48c-33.91-26.77-31.44-48.95-11.01-74.87,21.07-26.66,43.96-33.96,82.56-3.48,38.63,30.48,36.82,54.41,15.79,81.1Z"/>
    <polygon class="cls-1" points="2364.08 456.77 2477.78 488.93 2454.31 571.91 2423.93 563.34 2436.66 518.32 2424.19 514.79 2413.66 552.02 2386.1 544.22 2396.63 507.02 2383.71 503.36 2370.63 549.6 2340.25 541.01 2364.08 456.77"/>
    <rect class="cls-1" x="2332.62" y="280.44" width="118.15" height="39.5" transform="translate(103.91 1059.37) rotate(-25.51)"/>
    <polygon class="cls-1" points="2232.01 123.23 2207.94 203.01 2170.14 191.6 2194.23 111.82 2166.48 103.44 2176.53 70.14 2269.81 98.29 2259.76 131.59 2232.01 123.23"/>
    <path class="cls-1" d="M2206.72,724.62c5.57,48.87-12.71,64.47-46.48,68.32-33.75,3.85-55.05-7.24-60.62-56.14-5.54-48.87,12.71-64.47,46.48-68.32,33.75-3.85,55.05,7.24,60.62,56.14Z"/>
    <polygon class="cls-1" points="2041.33 188.81 2041.68 191.89 2007.06 213.22 1997.11 203.57 1970.36 220.04 1974.53 233.25 1938.85 255.25 1908.97 134.88 1949.49 109.91 2041.33 188.81"/>
    <path class="cls-1" d="M2259.04,225.16l85.27-81.77,27.88,29.08c38.52,40.17,32.87,58.82,2.39,88.05-30.7,29.45-49.11,33.88-87.76-6.42l-27.78-28.94Z"/>
    <path class="cls-1" d="M2053.51,665.06l37.51,12.36-36.96,112.2-49.8-16.4c-37.51-12.34-47.89-25.81-36.85-59.32,6.08-18.44,13.56-27.72,25.52-30.43l-2.15-39.05,39.98,13.16-.45,30.85,13.98,4.62,9.21-27.99Z"/>
    <path class="cls-1" d="M2353.83,349.38l117.24-14.54,6.45,52.05c4.86,39.19-2.89,54.33-37.89,58.66-19.29,2.39-30.88-.4-38.44-10.05l-34.38,18.6-5.17-41.76,28.1-12.76-1.8-14.62-29.24,3.61-4.86-39.19Z"/>
    <path class="cls-1" d="M2104.93,187.04l-12.28-28.31-14.64,1.54,3.13,29.29-39.26,4.19-.19-1.86,1.88-1.17-2.23-1.91-11.99-112.54,52.16-5.54c39.26-4.17,54.25,3.82,58,38.89,2.04,19.31-.96,30.88-10.74,38.26l18.01,34.7-41.84,4.46Z"/>
  </g>
  <g>
    <path class="cls-1" d="M1109.67,191.49v94.22h-79.28v-92.56c0-17.26-3.33-24.89-13.6-24.89-9.62,0-16.25,7.31-19.9,12.59v104.86h-79.64V152.99l-3.33-51.09h67.37l6.62,22.58c5.32-5.32,27.86-25.22,60.06-25.22,48.45,0,61.7,26.88,61.7,92.23Z"/>
    <path class="cls-1" d="M1330.96,285.71h-72.66l-4.31-7.63c-12.3,8.29-28.22,14.26-48.77,14.26-43.81,0-71.35-15.92-71.35-59.38s32.53-60.72,73.01-60.72c16.9,0,30.51,.65,40.78,1.66v-10.96c0-11.26-5.64-16.25-17.23-16.25s-17.26,4.99-17.26,16.25h-69.69c0-21.24,7.63-65.35,82.28-65.35,92.56,0,101.53,37.16,101.53,97.22v37.81l3.65,53.08Z"/>
    <path class="cls-1" d="M451.16,193.81c0,64.7-27.89,98.53-100.19,98.53s-100.22-33.83-100.22-98.53,27.89-98.53,100.22-98.53,100.19,33.83,100.19,98.53Z"/>
    <path class="cls-1" d="M145.59,43.51h80.94v127.76c0,85.58-9.27,114.45-113.8,114.45h-22.22v-70.01h22.22c22.9,0,32.85-5.97,32.85-44.44V43.51Z"/>
    <path class="cls-1" d="M886.41,191.49v94.22h-79.31v-92.56c0-17.26-3.3-24.89-13.57-24.89-9.62,0-16.28,7.31-19.93,12.59v104.86h-79.61V152.99l-3.33-51.09h67.34l6.65,22.58c5.29-5.32,27.86-25.22,60.03-25.22,48.45,0,61.73,26.88,61.73,92.23Z"/>
    <path class="cls-1" d="M662.47,232.63l3.65,53.08h-72.66l-4.31-7.63c-12.3,8.29-28.22,14.26-48.77,14.26-43.81,0-71.35-15.92-71.35-59.38s32.53-60.72,73.01-60.72c16.9,0,30.51,.65,40.78,1.66v-10.96c0-11.26-5.61-16.25-17.23-16.25s-17.26,4.99-17.26,16.25h-69.69c0-21.24,7.63-65.35,82.28-65.35,92.59,0,101.53,37.16,101.53,97.22v37.81Z"/>
  </g>
  <g>
    <path class="cls-1" d="M877.83,483.77c0,52.75-33.18,81.3-106.52,81.3s-105.18-31.87-105.18-93.57h78.3c0,22.22,13.28,29.85,30.86,29.85,7.96,0,20.91-1.99,20.91-14.26,0-27.54-129.39-4.66-128.08-97.22,.68-50.44,31.87-81.95,102.54-81.95s103.52,29.88,103.52,93.24h-77.65c0-17.26-7.63-28.55-25.55-28.55-15.27,0-22.22,4.66-22.22,14.94,0,28.55,129.06,3.33,129.06,96.21Z"/>
    <path class="cls-1" d="M2110.93,493.06v64.7h-18.89c-86.26,0-94.22-34.52-94.22-94.55v-37.16h-24.57v-52.1h24.57v-46.78l79.28-11.61v58.4h32.85v52.1h-32.85v33.83c0,27.21,7.63,33.18,21.57,33.18h12.27Z"/>
    <path class="cls-1" d="M1306.1,456.88l-.33,100.88h-79.28v-99.21c0-10.6-3.33-18.24-13.6-18.24s-17.94,9.3-21.24,14.58v102.87h-79.64v-252.16h79.64v84.6c9.95-7.96,28.52-18.89,52.43-18.89,48.42,0,62.35,26.85,62.02,85.58Z"/>
    <path class="cls-1" d="M1957.69,501.68l3.3,56.08h-67.34l-5.32-17.26c-8.61,10.28-24.54,21.89-53.08,21.89-50.44,0-72.98-29.53-72.98-95.89s22.55-97.19,72.98-97.19c19.57,0,33.83,6.62,43.13,12.92v-76.64h79.31v196.08Z"/>
    <path class="cls-1" d="M977.01,465.85c0,32.17,5.64,39.8,18.24,39.8,9.62,0,15.59-5.29,17.26-22.87h78.3c-3.98,50.41-23.23,81.6-95.56,81.6s-99.54-33.83-99.54-98.53,27.21-98.53,99.54-98.53,92.56,32.5,95.56,84.92h-77.97c-1.34-20.56-7.31-26.2-17.58-26.2-12.59,0-18.24,7.63-18.24,39.8Z"/>
    <rect class="cls-1" x="1659.07" y="298.98" width="79.64" height="56.41"/>
    <path class="cls-1" d="M1629.25,456.88l-.33,100.88h-75.66v-99.21c0-10.6-3-18.24-13.28-18.24-8.29,0-14.58,5.64-18.57,10.28v6.3l-.33,100.88h-72.33v-99.21c0-10.6-3-18.24-13.28-18.24-8.64,0-14.94,5.97-18.92,10.96v106.49h-79.64v-132.72l-3.3-51.09h67.34l5.97,19.57c7.31-7.31,24.89-22.22,52.43-22.22,24.57,0,40.81,7.96,50.44,24.54,5.97-6.3,26.85-24.54,57.39-24.54,45.45,0,62.38,26.85,62.05,85.58Z"/>
    <rect class="cls-1" x="1659.07" y="373.95" width="79.64" height="183.81"/>
  </g>
</svg>