<?xml version="1.0" encoding="UTF-8"?>
<svg id="Camada_1" data-name="Camada 1" xmlns="http://www.w3.org/2000/svg" viewBox="0 0 488.48 522.25">
  <defs>
    <style>
      .cls-1 {
        fill: #211915;
      }
    </style>
  </defs>
  <path class="cls-1" d="M372.93,49.82v31.72h-26.69v-31.16c0-5.81-1.12-8.38-4.58-8.38-3.24,0-5.47,2.46-6.7,4.24v35.3h-26.81V36.86l-1.12-17.2h22.68l2.23,7.6c1.79-1.79,9.38-8.49,20.22-8.49,16.31,0,20.77,9.05,20.77,31.05Z"/>
  <path class="cls-1" d="M447.43,81.54h-24.46l-1.45-2.57c-4.14,2.79-9.5,4.8-16.42,4.8-14.75,0-24.02-5.36-24.02-19.99s10.95-20.44,24.58-20.44c5.69,0,10.27,.22,13.73,.56v-3.69c0-3.79-1.9-5.47-5.8-5.47s-5.81,1.68-5.81,5.47h-23.46c0-7.15,2.57-22,27.7-22,31.16,0,34.18,12.51,34.18,32.73v12.73l1.23,17.87Z"/>
  <path class="cls-1" d="M151.24,50.6c0,21.78-9.39,33.17-33.73,33.17s-33.74-11.39-33.74-33.17,9.39-33.17,33.74-33.17,33.73,11.39,33.73,33.17Z"/>
  <path class="cls-1" d="M48.37,0h27.25V43.01c0,28.81-3.12,38.53-38.31,38.53h-7.48v-23.57h7.48c7.71,0,11.06-2.01,11.06-14.96V0Z"/>
  <path class="cls-1" d="M297.77,49.82v31.72h-26.7v-31.16c0-5.81-1.11-8.38-4.57-8.38-3.24,0-5.48,2.46-6.71,4.24v35.3h-26.8V36.86l-1.12-17.2h22.67l2.24,7.6c1.78-1.79,9.38-8.49,20.21-8.49,16.31,0,20.78,9.05,20.78,31.05Z"/>
  <path class="cls-1" d="M222.38,63.67l1.23,17.87h-24.46l-1.45-2.57c-4.14,2.79-9.5,4.8-16.42,4.8-14.75,0-24.02-5.36-24.02-19.99s10.95-20.44,24.58-20.44c5.69,0,10.27,.22,13.73,.56v-3.69c0-3.79-1.89-5.47-5.8-5.47s-5.81,1.68-5.81,5.47h-23.46c0-7.15,2.57-22,27.7-22,31.17,0,34.18,12.51,34.18,32.73v12.73Z"/>
</svg>