<?xml version="1.0" encoding="UTF-8"?>
<svg id="Camada_1" data-name="Camada 1" xmlns="http://www.w3.org/2000/svg" viewBox="0 0 488.48 522.25">
  <defs>
    <style>
      .cls-1 {
        fill: #211915;
      }
    </style>
  </defs>
  <path class="cls-1" d="M71.27,160.33c0,17.76-11.17,27.37-35.86,27.37S0,176.97,0,156.2H26.36c0,7.48,4.47,10.05,10.39,10.05,2.68,0,7.04-.67,7.04-4.8,0-9.27-43.56-1.57-43.12-32.73,.23-16.98,10.73-27.59,34.52-27.59s34.85,10.06,34.85,31.39h-26.14c0-5.81-2.57-9.61-8.6-9.61-5.14,0-7.48,1.57-7.48,5.03,0,9.61,43.45,1.12,43.45,32.39Z"/>
  <path class="cls-1" d="M486.4,163.46v21.78h-6.36c-29.04,0-31.72-11.62-31.72-31.83v-12.51h-8.27v-17.54h8.27v-15.75l26.69-3.91v19.66h11.06v17.54h-11.06v11.39c0,9.16,2.57,11.17,7.26,11.17h4.13Z"/>
  <path class="cls-1" d="M215.45,151.28l-.11,33.96h-26.69v-33.4c0-3.57-1.12-6.14-4.58-6.14s-6.04,3.13-7.15,4.91v34.63h-26.81V100.35h26.81v28.48c3.35-2.68,9.6-6.36,17.65-6.36,16.3,0,20.99,9.04,20.88,28.81Z"/>
  <path class="cls-1" d="M434.81,166.36l1.11,18.88h-22.67l-1.79-5.81c-2.9,3.46-8.26,7.37-17.87,7.37-16.98,0-24.57-9.94-24.57-32.28s7.59-32.72,24.57-32.72c6.59,0,11.39,2.23,14.52,4.35v-25.8h26.7v66.01Z"/>
  <path class="cls-1" d="M104.66,154.3c0,10.83,1.9,13.4,6.14,13.4,3.24,0,5.25-1.78,5.81-7.7h26.36c-1.34,16.97-7.82,27.47-32.17,27.47s-33.51-11.39-33.51-33.17,9.16-33.17,33.51-33.17,31.16,10.94,32.17,28.59h-26.25c-.45-6.92-2.46-8.82-5.92-8.82-4.24,0-6.14,2.57-6.14,13.4Z"/>
  <rect class="cls-1" x="334.28" y="98.12" width="26.81" height="18.99"/>
  <path class="cls-1" d="M324.24,151.28l-.11,33.96h-25.47v-33.4c0-3.57-1.01-6.14-4.47-6.14-2.79,0-4.91,1.9-6.25,3.46v2.12l-.11,33.96h-24.35v-33.4c0-3.57-1.01-6.14-4.47-6.14-2.91,0-5.03,2.01-6.37,3.69v35.85h-26.81v-44.68l-1.11-17.2h22.67l2.01,6.59c2.46-2.46,8.38-7.48,17.65-7.48,8.27,0,13.74,2.68,16.98,8.26,2.01-2.12,9.04-8.26,19.32-8.26,15.3,0,21,9.04,20.89,28.81Z"/>
  <rect class="cls-1" x="334.28" y="123.36" width="26.81" height="61.88"/>
</svg>