<?xml version="1.0" encoding="UTF-8"?>
<svg id="Layer_2" data-name="Layer 2" xmlns="http://www.w3.org/2000/svg" viewBox="0 0 1137.06 360.52">
  <defs>
    <style>
      .cls-1 {
        fill: #f86906;
      }

      .cls-2 {
        fill: #0b07fa;
      }
    </style>
  </defs>
  <g id="canvas">
    <g id="joanna_schmidt" data-name="joanna schmidt">
      <g>
        <path class="cls-2" d="m498.94,72.44v46.13h-38.81v-45.31c0-8.45-1.63-12.19-6.66-12.19-4.71,0-7.96,3.58-9.74,6.16v51.33h-38.99V53.6l-1.63-25.01h32.98l3.24,11.05c2.6-2.6,13.64-12.35,29.4-12.35,23.72,0,30.21,13.16,30.21,45.15h0Z"/>
        <path class="cls-2" d="m607.27,118.57h-35.57l-2.11-3.74c-6.02,4.06-13.82,6.98-23.88,6.98-21.45,0-34.93-7.79-34.93-29.07s15.93-29.73,35.74-29.73c8.27,0,14.94.32,19.96.81v-5.37c0-5.51-2.76-7.96-8.44-7.96s-8.45,2.44-8.45,7.96h-34.12c0-10.4,3.74-31.99,40.28-31.99,45.31,0,49.7,18.19,49.7,47.59v18.51l1.79,25.99h0Z"/>
        <path class="cls-2" d="m176.56,73.58c0,31.67-13.65,48.24-49.05,48.24s-49.06-16.56-49.06-48.24,13.65-48.24,49.06-48.24,49.05,16.56,49.05,48.24Z"/>
        <path class="cls-2" d="m26.96,0h39.62v62.55c0,41.9-4.54,56.03-55.71,56.03H0v-34.27h10.88c11.21,0,16.08-2.92,16.08-21.76V0h0Z"/>
        <path class="cls-2" d="m389.64,72.44v46.13h-38.83v-45.31c0-8.45-1.62-12.19-6.64-12.19-4.71,0-7.97,3.58-9.76,6.16v51.33h-38.97V53.6l-1.63-25.01h32.97l3.26,11.05c2.59-2.6,13.64-12.35,29.39-12.35,23.72,0,30.22,13.16,30.22,45.15h0Z"/>
        <path class="cls-2" d="m280.01,92.58l1.79,25.99h-35.57l-2.11-3.74c-6.02,4.06-13.82,6.98-23.88,6.98-21.45,0-34.93-7.79-34.93-29.07s15.93-29.73,35.74-29.73c8.27,0,14.94.32,19.96.81v-5.37c0-5.51-2.75-7.96-8.44-7.96s-8.45,2.44-8.45,7.96h-34.12c0-10.4,3.74-31.99,40.28-31.99,45.33,0,49.7,18.19,49.7,47.59v18.51h0Z"/>
      </g>
      <g>
        <path class="cls-2" d="m385.44,215.72c0,25.82-16.24,39.8-52.15,39.8s-51.49-15.6-51.49-45.81h38.33c0,10.88,6.5,14.61,15.11,14.61,3.9,0,10.24-.97,10.24-6.98,0-13.48-63.34-2.28-62.7-47.59.33-24.69,15.6-40.12,50.2-40.12s50.68,14.63,50.68,45.65h-38.01c0-8.45-3.74-13.98-12.51-13.98-7.48,0-10.88,2.28-10.88,7.31,0,13.98,63.18,1.63,63.18,47.1h0Z"/>
        <path class="cls-2" d="m989.11,220.27v31.67h-9.25c-42.23,0-46.13-16.9-46.13-46.29v-18.19h-12.03v-25.51h12.03v-22.9l38.81-5.68v28.59h16.08v25.51h-16.08v16.56c0,13.32,3.74,16.24,10.56,16.24h6.01,0Z"/>
        <path class="cls-2" d="m595.1,202.56l-.16,49.39h-38.81v-48.57c0-5.19-1.63-8.93-6.66-8.93s-8.78,4.55-10.4,7.14v50.36h-38.99v-123.45h38.99v41.42c4.87-3.9,13.96-9.25,25.67-9.25,23.7,0,30.52,13.14,30.36,41.9h0Z"/>
        <path class="cls-2" d="m914.09,224.49l1.62,27.45h-32.97l-2.6-8.45c-4.22,5.03-12.01,10.72-25.99,10.72-24.69,0-35.73-14.46-35.73-46.94s11.04-47.58,35.73-47.58c9.58,0,16.56,3.24,21.11,6.33v-37.52h38.83v95.99h0Z"/>
        <path class="cls-2" d="m433.99,206.95c0,15.75,2.76,19.48,8.93,19.48,4.71,0,7.63-2.59,8.45-11.2h38.33c-1.95,24.68-11.37,39.95-46.78,39.95s-48.73-16.56-48.73-48.24,13.32-48.24,48.73-48.24,45.31,15.91,46.78,41.57h-38.17c-.66-10.07-3.58-12.83-8.61-12.83-6.16,0-8.93,3.74-8.93,19.48h0Z"/>
        <rect class="cls-2" x="767.9" y="125.26" width="38.99" height="27.62"/>
        <path class="cls-2" d="m753.3,202.56l-.16,49.39h-37.04v-48.57c0-5.19-1.47-8.93-6.5-8.93-4.06,0-7.14,2.76-9.09,5.03v3.08l-.16,49.39h-35.41v-48.57c0-5.19-1.47-8.93-6.5-8.93-4.23,0-7.31,2.92-9.26,5.37v52.13h-38.99v-64.97l-1.62-25.01h32.97l2.92,9.58c3.58-3.58,12.19-10.88,25.67-10.88,12.03,0,19.98,3.9,24.69,12.01,2.92-3.08,13.14-12.01,28.1-12.01,22.25,0,30.54,13.14,30.38,41.9h0Z"/>
        <rect class="cls-2" x="767.9" y="161.96" width="38.99" height="89.99"/>
      </g>
    </g>
    <g id="art_director" data-name="art director">
      <path class="cls-1" d="m919.19,59.33l.17,1.53.94-.58-1.11-.95h0Z"/>
      <path class="cls-1" d="m919.19,59.33l.17,1.53.94-.58-1.11-.95h0Z"/>
      <polygon class="cls-1" points="1058.48 309.56 1066.96 324.67 1024.67 348.44 1016.17 333.34 1028.75 326.27 1008.42 290.08 1025.56 280.45 1045.9 316.62 1058.48 309.56"/>
      <path class="cls-1" d="m1099.98,292.73c-10.04,12.71-20.48,16.7-36.86,3.76l11.98-15.18c7.15,5.12,9.49,3.99,11.77,1.07,2.41-3.03,2.88-6.25-7.24-14.23-10.12-7.99-13.13-6.78-15.52-3.74-2.35,2.97-2.85,5.55,4.36,11.76l-11.98,15.18c-16.89-13.33-15.66-24.38-5.48-37.28,10.49-13.28,21.89-16.91,41.11-1.73,19.24,15.18,18.34,27.1,7.86,40.39h0Z"/>
      <polygon class="cls-1" points="1079.91 192.77 1136.53 208.78 1124.84 250.1 1109.71 245.84 1116.05 223.42 1109.84 221.66 1104.6 240.2 1090.88 236.31 1096.12 217.79 1089.69 215.97 1083.17 238.99 1068.04 234.72 1079.91 192.77"/>
      <rect class="cls-1" x="1064.26" y="104.99" width="58.84" height="19.67" transform="translate(57.17 482.21) rotate(-25.51)"/>
      <polygon class="cls-1" points="1014.14 26.67 1002.16 66.4 983.33 60.71 995.33 20.99 981.51 16.81 986.51 .23 1032.97 14.25 1027.96 30.83 1014.14 26.67"/>
      <path class="cls-1" d="m1001.55,326.15c2.77,24.34-6.33,32.11-23.15,34.02-16.81,1.92-27.41-3.61-30.19-27.96-2.76-24.34,6.33-32.11,23.15-34.02,16.81-1.92,27.41,3.61,30.19,27.96Z"/>
      <polygon class="cls-1" points="919.19 59.33 919.36 60.86 902.12 71.48 897.17 66.68 883.84 74.88 885.92 81.46 868.15 92.41 853.27 32.47 873.45 20.03 919.19 59.33"/>
      <path class="cls-1" d="m1027.6,77.43l42.46-40.72,13.88,14.48c19.18,20,16.37,29.29,1.19,43.85-15.29,14.67-24.46,16.87-43.7-3.2l-13.83-14.41h0Z"/>
      <path class="cls-1" d="m925.25,296.49l18.68,6.16-18.41,55.87-24.8-8.17c-18.68-6.15-23.85-12.85-18.35-29.54,3.03-9.18,6.75-13.8,12.71-15.15l-1.07-19.45,19.91,6.55-.22,15.36,6.96,2.3,4.59-13.94h0Z"/>
      <path class="cls-1" d="m1074.81,139.29l58.38-7.24,3.21,25.92c2.42,19.52-1.44,27.06-18.87,29.21-9.61,1.19-15.38-.2-19.14-5l-17.12,9.26-2.57-20.8,13.99-6.35-.9-7.28-14.56,1.8-2.42-19.52h0Z"/>
      <path class="cls-1" d="m950.86,58.44l-6.12-14.1-7.29.77,1.56,14.59-19.55,2.09-.09-.93.94-.58-1.11-.95-5.97-56.04,25.97-2.76c19.55-2.08,27.02,1.9,28.88,19.37,1.02,9.62-.48,15.38-5.35,19.05l8.97,17.28-20.84,2.22h0Z"/>
    </g>
  </g>
</svg>